<svg id="Layer_1" data-name="Layer 1" xmlns="http://www.w3.org/2000/svg" viewBox="0 0 116.9 29.3"><defs><style>.cls-1{fill:#506a85;}</style></defs><title>logo-name</title><path class="cls-1" d="M0,.6H7.8V21.9H21.4v6.8H0Z"/><path class="cls-1" d="M22.2,14.7h0C22.2,6.6,28.7,0,37.4,0S52.5,6.5,52.5,14.6h0c0,8.1-6.5,14.6-15.2,14.6S22.2,22.8,22.2,14.7Zm22.4,0h0A7.3,7.3,0,0,0,37.3,7c-4.3,0-7.1,3.5-7.1,7.5h0a7.3,7.3,0,0,0,7.2,7.6C41.7,22.2,44.6,18.8,44.6,14.7Z"/><path class="cls-1" d="M55.6,14.7h0C55.6,6.4,62.1,0,70.8,0A16.4,16.4,0,0,1,82.2,4.1L77.6,9.6A9.9,9.9,0,0,0,70.8,7c-4.1,0-7.2,3.4-7.2,7.7h0a7.4,7.4,0,0,0,7.6,7.8,8,8,0,0,0,4.5-1.2V18H70.2V12.3h13V24.9a19,19,0,0,1-12.2,4.3C62.2,29.3,55.6,23.2,55.6,14.7Z"/><path class="cls-1" d="M86.6,14.7h0C86.6,6.6,93.1,0,101.8,0s15.1,6.5,15.1,14.6h0c0,8.1-6.5,14.6-15.2,14.6S86.6,22.8,86.6,14.7Zm22.4,0h0A7.3,7.3,0,0,0,101.7,7c-4.3,0-7.1,3.5-7.1,7.5h0a7.3,7.3,0,0,0,7.2,7.6C106.1,22.2,108.9,18.8,108.9,14.7Z"/></svg>